<svg xmlns="http://www.w3.org/2000/svg" xmlns:xlink="http://www.w3.org/1999/xlink" viewBox="0 0 512 512">
  <defs>
    <clipPath id="b">
      <rect width="512" height="512" />
    </clipPath>
  </defs>
  <g id="a" clip-path="url(#b)">
    <rect width="512" height="512" fill="rgba(131,131,131,0)" stroke="rgba(131,131,131,0)"/>
    <g transform="translate(8.003 0)">
      <path d="M-2.347,10.082,275.179-85.71s5.986,3.666,14.072,18.39c4.552,8.289,4.11,15.178,8.678,25.3s9.594,15.2,9.594,15.2L-2.347,75.667A35.392,35.392,0,0,0-1.278,64.088c-.382-7.017-2.6-12.134-2.6-20.494C-3.876,28.2-2.347,10.082-2.347,10.082Z" transform="translate(103.377 217.719)" />
      <path d="M105,0S80.32,4.414,53.679,9.906C22.7,16.29-7.866,48.612-6.446,52.39c1.389,3.694,30.292-18.5,60.408-17.18C80.177,36.361,105,36.772,105,36.772" transform="translate(6.493 238.072)" stroke-width="8" />
      <path d="M-86.118,151.755S-80.7,95.637-54.063,53.485C-40.2,31.545-35.634,24.832-15.892,8.675S11.95-11.45,45.03-13.6c15.713-1.022,49.261,5.188,71.4,13.67,42.169,16.156,77.149,53.417,77.149,53.417" transform="translate(187.072 79.025)" />
      <path d="M1.588,13.342-5.369,109.1s-58.968,47.774-29.974,60.329c17.454,7.558,39.889-19.5,75.035-24.129,22.924-3.019,52.529,13.109,92.543,0s21.2-25.086,67.511-52.437c20.515-12.117,142.292-17.742,163.366-54.584,11.762-20.562-4.867-32.691-17.76-63.724s-33.81-60.406-33.81-60.406" transform="translate(99.502 276.045)" />
      <path d="M113.651,0S78.963,4.43,47.567,9.634C21.824,13.9-1.15,46.856.045,50.033c1.336,3.555,30.335-20.79,59.328-17.9,27.389,2.734,54.278,4.636,54.278,4.636" transform="matrix(-0.839, 0.545, -0.545, -0.839, 495.993, 116.387)" stroke-width="8" />
      <g transform="matrix(0.985, -0.174, 0.174, 0.985, 190.167, 159.633)" fill="#fff">
        <path d="M 14.7643985748291 50.33781814575195 C 13.11577796936035 50.33781814575195 11.49895858764648 49.86219024658203 9.958868026733398 48.92414093017578 C 8.444858551025391 48.00198745727539 7.035398483276367 46.65438079833984 5.769618511199951 44.91875839233398 C 3.200098514556885 41.39545822143555 1.361228466033936 36.39860916137695 0.5917384028434753 30.84865951538086 C 0.5268983840942383 30.38447952270508 1.655998349189758 29.44270896911621 2.480428457260132 28.75505828857422 C 3.796898365020752 27.65700912475586 5.158178329467773 26.52156829833984 5.158178329467773 25.24455833435059 C 5.158178329467773 24.25650978088379 3.976418495178223 23.52875900268555 2.725268363952637 22.75827980041504 C 1.706128358840942 22.13066864013672 0.4377784132957458 21.34959983825684 0.5024384260177612 20.7280387878418 C 1.078568458557129 15.14012908935547 2.840748310089111 10.00754928588867 5.464398384094238 6.275329113006592 C 6.754778385162354 4.4397292137146 8.202678680419922 3.008799076080322 9.767888069152832 2.022279024124146 C 11.37050819396973 1.012169122695923 13.05157852172852 0.499999076128006 14.7643985748291 0.499999076128006 C 16.68561935424805 0.499999076128006 18.55477905273438 1.140639066696167 20.31994819641113 2.40411901473999 C 22.05162811279297 3.643639087677002 23.61104774475098 5.425229072570801 24.95486831665039 7.699388980865479 C 27.74698829650879 12.42450904846191 29.28466796875 18.7174186706543 29.28466796875 25.41890907287598 C 29.28466796875 32.12039947509766 27.74698829650879 38.41330718994141 24.95486831665039 43.138427734375 C 23.61104774475098 45.41259002685547 22.05162811279297 47.19417953491211 20.31994819641113 48.43370056152344 C 18.55477905273438 49.69717788696289 16.68561935424805 50.33781814575195 14.7643985748291 50.33781814575195 Z" stroke="none" />
        <path d="M 14.7643985748291 1 C 13.14740753173828 1 11.55603790283203 1.486259460449219 10.03448867797852 2.445270538330078 C 8.525548934936523 3.396327972412109 7.125568389892578 4.781688690185547 5.873449325561523 6.562870025634766 C 3.299072265625 10.22499847412109 1.568632125854492 15.27086639404297 1.000419616699219 20.77327728271484 C 1.0067138671875 20.79829025268555 1.064634323120117 20.97669792175293 1.492399215698242 21.32868957519531 C 1.894058227539062 21.65919876098633 2.449897766113281 22.00149917602539 2.987447738647461 22.33252906799316 C 4.360898971557617 23.17832946777344 5.658178329467773 23.97721862792969 5.658178329467773 25.24455833435059 C 5.658178329467773 26.75562858581543 4.20551872253418 27.9672794342041 2.800678253173828 29.13902854919434 C 2.32868766784668 29.53271865844727 1.882867813110352 29.90456962585449 1.546869277954102 30.24562835693359 C 1.207033157348633 30.590576171875 1.116052627563477 30.77024459838867 1.093538284301758 30.8270149230957 C 1.85572624206543 36.27786254882812 3.659051895141602 41.17621612548828 6.173599243164062 44.62413787841797 C 7.400398254394531 46.30632019042969 8.761447906494141 47.60936737060547 10.21895790100098 48.49711990356445 C 11.6795482635498 49.38673782348633 13.20885848999023 49.83781814575195 14.7643985748291 49.83781814575195 C 16.5791187286377 49.83781814575195 18.35035705566406 49.22860717773438 20.0289192199707 48.02711868286133 C 21.70368957519531 46.82833862304688 23.21618843078613 45.09796905517578 24.5244083404541 42.88405990600586 C 25.85475921630859 40.63269805908203 26.90102767944336 38.00387954711914 27.63414764404297 35.07061767578125 C 28.39757919311523 32.01607894897461 28.78466796875 28.76876831054688 28.78466796875 25.41890907287598 C 28.78466796875 22.06904983520508 28.39757919311523 18.82173919677734 27.63414764404297 15.7672004699707 C 26.90102767944336 12.83393859863281 25.85475921630859 10.20512008666992 24.5244083404541 7.953758239746094 C 23.21618843078613 5.739849090576172 21.70368957519531 4.009479522705078 20.0289192199707 2.810699462890625 C 18.35035705566406 1.609210968017578 16.5791187286377 1 14.7643985748291 1 M 14.7643985748291 0 C 23.05986785888672 0 29.78466796875 11.38043975830078 29.78466796875 25.41890907287598 C 29.78466796875 39.45737838745117 23.05986785888672 50.83781814575195 14.7643985748291 50.83781814575195 C 7.655187606811523 50.83781814575195 1.699548721313477 42.47946929931641 0.09646797180175781 30.91731834411621 C -0.1183414459228516 29.37955856323242 4.658178329467773 27.25205993652344 4.658178329467773 25.24455833435059 C 4.658178329467773 23.7424488067627 -0.1788711547851562 22.44510841369629 0.00511932373046875 20.67630958557129 C 1.201229095458984 9.075309753417969 7.356557846069336 0 14.7643985748291 0 Z" stroke="none" fill="#fff" />
      </g>
      <path d="M1.182,34.84V31.2s40.468,6.06,60.892,0C88.359,23.4,104.958,0,104.958,0" transform="translate(209.304 203.41)" fill="none" stroke="#fff" stroke-width="8" />
      <g transform="matrix(0.985, -0.174, 0.174, 0.985, 267.327, 144.343)" fill="#fff">
        <path d="M 14.7643985748291 50.33781814575195 C 13.11577796936035 50.33781814575195 11.49895858764648 49.86219024658203 9.958868026733398 48.92414093017578 C 8.444858551025391 48.00198745727539 7.035398483276367 46.65438079833984 5.769618511199951 44.91875839233398 C 3.200098514556885 41.39545822143555 1.361228466033936 36.39860916137695 0.5917384028434753 30.84865951538086 C 0.5268983840942383 30.38447952270508 1.655998349189758 29.44270896911621 2.480428457260132 28.75505828857422 C 3.796898365020752 27.65700912475586 5.158178329467773 26.52156829833984 5.158178329467773 25.24455833435059 C 5.158178329467773 24.25650978088379 3.976418495178223 23.52875900268555 2.725268363952637 22.75827980041504 C 1.706128358840942 22.13066864013672 0.4377784132957458 21.34959983825684 0.5024384260177612 20.7280387878418 C 1.078568458557129 15.14012908935547 2.840748310089111 10.00754928588867 5.464398384094238 6.275329113006592 C 6.754778385162354 4.4397292137146 8.202678680419922 3.008799076080322 9.767888069152832 2.022279024124146 C 11.37050819396973 1.012169122695923 13.05157852172852 0.499999076128006 14.7643985748291 0.499999076128006 C 16.68561935424805 0.499999076128006 18.55477905273438 1.140639066696167 20.31994819641113 2.40411901473999 C 22.05162811279297 3.643639087677002 23.61104774475098 5.425229072570801 24.95486831665039 7.699388980865479 C 27.74698829650879 12.42450904846191 29.28466796875 18.7174186706543 29.28466796875 25.41890907287598 C 29.28466796875 32.12039947509766 27.74698829650879 38.41330718994141 24.95486831665039 43.138427734375 C 23.61104774475098 45.41259002685547 22.05162811279297 47.19417953491211 20.31994819641113 48.43370056152344 C 18.55477905273438 49.69717788696289 16.68561935424805 50.33781814575195 14.7643985748291 50.33781814575195 Z" stroke="none" />
        <path d="M 14.7643985748291 1 C 13.14740753173828 1 11.55603790283203 1.486259460449219 10.03448867797852 2.445270538330078 C 8.525548934936523 3.396327972412109 7.125568389892578 4.781688690185547 5.873449325561523 6.562870025634766 C 3.299072265625 10.22499847412109 1.568632125854492 15.27086639404297 1.000419616699219 20.77327728271484 C 1.0067138671875 20.79829025268555 1.064634323120117 20.97669792175293 1.492399215698242 21.32868957519531 C 1.894058227539062 21.65919876098633 2.449897766113281 22.00149917602539 2.987447738647461 22.33252906799316 C 4.360898971557617 23.17832946777344 5.658178329467773 23.97721862792969 5.658178329467773 25.24455833435059 C 5.658178329467773 26.75562858581543 4.20551872253418 27.9672794342041 2.800678253173828 29.13902854919434 C 2.32868766784668 29.53271865844727 1.882867813110352 29.90456962585449 1.546869277954102 30.24562835693359 C 1.207033157348633 30.590576171875 1.116052627563477 30.77024459838867 1.093538284301758 30.8270149230957 C 1.85572624206543 36.27786254882812 3.659051895141602 41.17621612548828 6.173599243164062 44.62413787841797 C 7.400398254394531 46.30632019042969 8.761447906494141 47.60936737060547 10.21895790100098 48.49711990356445 C 11.6795482635498 49.38673782348633 13.20885848999023 49.83781814575195 14.7643985748291 49.83781814575195 C 16.5791187286377 49.83781814575195 18.35035705566406 49.22860717773438 20.0289192199707 48.02711868286133 C 21.70368957519531 46.82833862304688 23.21618843078613 45.09796905517578 24.5244083404541 42.88405990600586 C 25.85475921630859 40.63269805908203 26.90102767944336 38.00387954711914 27.63414764404297 35.07061767578125 C 28.39757919311523 32.01607894897461 28.78466796875 28.76876831054688 28.78466796875 25.41890907287598 C 28.78466796875 22.06904983520508 28.39757919311523 18.82173919677734 27.63414764404297 15.7672004699707 C 26.90102767944336 12.83393859863281 25.85475921630859 10.20512008666992 24.5244083404541 7.953758239746094 C 23.21618843078613 5.739849090576172 21.70368957519531 4.009479522705078 20.0289192199707 2.810699462890625 C 18.35035705566406 1.609210968017578 16.5791187286377 1 14.7643985748291 1 M 14.7643985748291 0 C 23.05986785888672 0 29.78466796875 11.38043975830078 29.78466796875 25.41890907287598 C 29.78466796875 39.45737838745117 23.05986785888672 50.83781814575195 14.7643985748291 50.83781814575195 C 7.655187606811523 50.83781814575195 1.699548721313477 42.47946929931641 0.09646797180175781 30.91731834411621 C -0.1183414459228516 29.37955856323242 4.658178329467773 27.25205993652344 4.658178329467773 25.24455833435059 C 4.658178329467773 23.7424488067627 -0.1788711547851562 22.44510841369629 0.00511932373046875 20.67630958557129 C 1.201229095458984 9.075309753417969 7.356557846069336 0 14.7643985748291 0 Z" stroke="none" fill="#fff" />
      </g>
    </g>
  </g>
</svg>