<svg xmlns="http://www.w3.org/2000/svg" xmlns:xlink="http://www.w3.org/1999/xlink" width="128" height="128" viewBox="0 0 128 128"><defs><clipPath id="b"><rect width="128" height="128"/></clipPath></defs><g id="a" clip-path="url(#b)"><rect width="128" height="128" fill="#6c6c6c"/><path d="M32,0C49.169.017,48,4,64,4S78.438-.083,96,0a31.879,31.879,0,0,1,32,32c.076,18.132-4,16-4,32s3.944,15.232,4,32-14.291,31.994-32,32-16-4-32-4-13.735,3.989-32,4S-.2,112.52,0,96,4,80,4,64,.156,48.666,0,32,14.831-.017,32,0Z" fill="#fff"/></g></svg>